<svg
	xmlns:dc="http://purl.org/dc/elements/1.1/"
	xmlns:cc="http://creativecommons.org/ns#"
	xmlns:rdf="http://www.w3.org/1999/02/22-rdf-syntax-ns#"
	xmlns:svg="http://www.w3.org/2000/svg"
	xmlns="http://www.w3.org/2000/svg"
	version="1.1"
	width="45pt"
	height="45pt"
	viewBox="0 0 261 209"
	preserveAspectRatio="xMidYMid meet">
	<path class="logo-path" d="m 185.52,0 4.97,0 c 14.99,0.79 30.29,4.8 42.18,14.33 14.5,11.47 24.45,28.39 27.65,46.57 -11.01,0.24 -22.03,0.2 -33.05,0.02 -3.26,-8.61 -8.19,-16.95 -15.88,-22.29 -9.58,-6.7 -22.1,-8.38 -33.37,-5.81 -11.07,2.53 -20.64,10.29 -25.93,20.27 -3.74,7.35 -4.46,15.74 -5.04,23.84 -0.59,13.86 -0.88,27.75 -0.46,41.63 0.31,9.99 0.32,20.13 2.77,29.89 2.46,10.06 9.6,18.64 18.61,23.57 11.45,6.79 26.41,7.08 38.3,1.25 9.92,-4.84 16.19,-14.36 21.18,-23.82 10.92,-0.12 21.84,-0.12 32.77,-0.01 -3.68,18.55 -13.77,36.42 -29.68,47.11 -11.96,8.23 -26.49,11.92 -40.88,12.45 l -2.3,0 c -11.16,-0.73 -22.49,-2.64 -32.52,-7.83 -9.15,-4.83 -17.32,-11.44 -24.18,-19.18 -2.89,3 -5.85,5.94 -8.95,8.73 -25.55,22.43 -66.9,24.08 -94.07,3.61 C 13.42,183.56 4.69,166.91 0.86,149.74 c 10.94,-0.16 21.89,-0.32 32.82,0.1 4.17,8.16 9.34,16.19 17.13,21.32 8.39,5.74 19.07,7.38 28.99,5.85 14.44,-2.47 27.65,-13.14 31.61,-27.49 3.56,-13.17 3.2,-27 2.87,-40.53 0.17,-35.63 0.07,-71.26 0.07,-106.89 10.32,-0.23 20.65,-0.15 30.97,-0.06 0.06,3.67 0.1,7.33 0.22,10.99 4.03,-2.55 8.13,-5.02 12.48,-7 8.65,-3.83 18.13,-5.25 27.5,-6.03 z"
	/>
</svg>